<?xml version="1.0" encoding="utf-8"?>
<!-- Generator: Adobe Illustrator 27.9.0, SVG Export Plug-In . SVG Version: 6.00 Build 0)  -->
<svg version="1.0" xmlns="http://www.w3.org/2000/svg" xmlns:xlink="http://www.w3.org/1999/xlink" x="0px" y="0px"
	 viewBox="0 0 200 200" enable-background="new 0 0 200 200" xml:space="preserve">
<g id="Camada_2" display="none">
	
		<ellipse transform="matrix(0.2298 -0.9732 0.9732 0.2298 -19.4137 174.324)" display="inline" fill="none" stroke="#00264D" stroke-width="5.6693" stroke-miterlimit="10" cx="100.4" cy="99.4" rx="95.1" ry="95.1"/>
	<g display="inline">
		<circle fill="none" stroke="#00264D" stroke-width="5.6693" stroke-miterlimit="10" cx="100.4" cy="74.4" r="23.5"/>
		<path fill="none" stroke="#00264D" stroke-width="5.6693" stroke-miterlimit="10" d="M147.9,145.9c0-0.2,0-0.3,0-0.5
			c0-26.2-21.3-47.5-47.5-47.5s-47.5,21.3-47.5,47.5c0,0.2,0,0.3,0,0.5H147.9z"/>
	</g>
</g>
<g id="Camada_1">
	<g>
		<path fill="#5A88B4" d="M100.4,197.4c-54,0-98-44-98-98s44-98,98-98s98,44,98,98S154.5,197.4,100.4,197.4z M100.4,7.1
			C49.5,7.1,8.1,48.5,8.1,99.4s41.4,92.3,92.3,92.3s92.3-41.4,92.3-92.3S151.3,7.1,100.4,7.1z"/>
	</g>
	<g>
		<g>
			<path fill="#5A88B4" d="M100.4,100.8c-14.5,0-26.3-11.8-26.3-26.3s11.8-26.3,26.3-26.3s26.3,11.8,26.3,26.3
				S114.9,100.8,100.4,100.8z M100.4,53.8C89,53.8,79.8,63,79.8,74.4s9.3,20.7,20.7,20.7s20.7-9.3,20.7-20.7S111.8,53.8,100.4,53.8z
				"/>
		</g>
		<g>
			<path fill="#5A88B4" d="M150.7,148.8H50.1l0-3c0-0.1,0-0.2,0-0.4c0-27.8,22.6-50.3,50.3-50.3s50.3,22.6,50.3,50.3
				c0,0.1,0,0.3,0,0.4l0,0.2L150.7,148.8z M55.8,143.1H145c-1.2-23.5-20.8-42.3-44.6-42.3S57,119.5,55.8,143.1z"/>
		</g>
	</g>
</g>
</svg>
